# xmcd
#
# Track frame offsets: 
#        150
#        25777
#        38651
#        56192
#
# Disc length: 986 seconds
#
# Revision: 0
# Processed by: cddbd v1.5.2PL0 Copyright (c) Steve Scherf et al.
# Submitted via: ExactAudioCopy v0.99pb4
#
DISCID=2b03d804
DTITLE=Hangdog - 4-Song Demo Record
DYEAR=2010
DGENRE=Rockabilly
TTITLE0=Voodoo
TTITLE1=Slow Simmer
TTITLE2=Handle my Heart
TTITLE3=In Betweens
EXTD=
EXTT0=
EXTT1=
EXTT2=
EXTT3=
PLAYORDER=
